<svg width="128" height="109" viewBox="0 0 128 109" fill="none" xmlns="http://www.w3.org/2000/svg">
<path fill-rule="evenodd" clip-rule="evenodd" d="M64 15.6743C60.6942 10.4172 50.6406 0.365757 35.2525 0.00789341C27.4074 -0.174551 20.6485 2.82854 15.3931 6.64551C10.1398 10.4609 6.37565 15.0986 4.51318 18.215C0.254881 25.1361 -4.77445 43.2209 9.05533 60.3262L9.06407 60.337L9.07407 60.3467C17.9757 68.9465 41.3887 90.5343 63.8386 108.096L64 107.89L64.1614 108.096C86.6113 90.5343 110.024 68.9465 118.926 60.3467L118.936 60.337L118.945 60.3262C132.774 43.2209 127.745 25.1361 123.487 18.215C121.624 15.0986 117.86 10.4609 112.607 6.64551C107.352 2.82854 100.593 -0.174551 92.7475 0.00789341C77.3594 0.365757 67.3058 10.4172 64 15.6743Z" fill="#0D6EFD"/>
</svg>
