<svg width="132" height="113" viewBox="0 0 132 113" fill="none" xmlns="http://www.w3.org/2000/svg">
<path fill-rule="evenodd" clip-rule="evenodd" d="M66 17.6743C62.6942 12.4172 52.6406 2.36576 37.2525 2.00789C29.4074 1.82545 22.6485 4.82854 17.3931 8.64551C12.1398 12.4609 8.37565 17.0986 6.51318 20.215C2.25488 27.1361 -2.77445 45.2209 11.0553 62.3262L11.0641 62.337L11.0741 62.3467C19.9757 70.9465 43.3887 92.5343 65.8386 110.096L66 109.89L66.1614 110.096C88.6113 92.5343 112.024 70.9465 120.926 62.3467L120.936 62.337L120.945 62.3262C134.774 45.2209 129.745 27.1361 125.487 20.215C123.624 17.0986 119.86 12.4609 114.607 8.64551C109.352 4.82854 102.593 1.82545 94.7475 2.00789C79.3594 2.36576 69.3058 12.4172 66 17.6743Z" stroke="#0D6EFD" stroke-width="10"/>
</svg>
